<?xml version="1.0" encoding="utf-8"?>
<!-- Generator: Adobe Illustrator 21.0.0, SVG Export Plug-In . SVG Version: 6.00 Build 0)  -->
<svg version="1.1"
	 id="svg3950" inkscape:version="0.91pre3 r13670" sodipodi:docname="_svgclean2.svg" xmlns:cc="http://creativecommons.org/ns#" xmlns:dc="http://purl.org/dc/elements/1.1/" xmlns:inkscape="http://www.inkscape.org/namespaces/inkscape" xmlns:rdf="http://www.w3.org/1999/02/22-rdf-syntax-ns#" xmlns:sodipodi="http://sodipodi.sourceforge.net/DTD/sodipodi-0.dtd"
	 xmlns="http://www.w3.org/2000/svg" xmlns:xlink="http://www.w3.org/1999/xlink" x="0px" y="0px" viewBox="0 0 796.9 1562"
	 style="enable-background:new 0 0 796.9 1562;" xml:space="preserve">
<style type="text/css">
	.st0{fill:#FFFFFF;fill-opacity:0.1885;}
	.st1{fill:#161616;}
</style>
<sodipodi:namedview  bordercolor="#666666" borderopacity="1.0" fit-margin-bottom="5" fit-margin-left="5" fit-margin-right="5" fit-margin-top="5" id="base" inkscape:current-layer="layer2" inkscape:cx="1440.5262" inkscape:cy="3673.2511" inkscape:document-units="px" inkscape:object-nodes="true" inkscape:object-paths="false" inkscape:pageopacity="0.0" inkscape:pageshadow="2" inkscape:snap-global="false" inkscape:snap-page="true" inkscape:window-height="645" inkscape:window-maximized="0" inkscape:window-width="718" inkscape:window-x="0" inkscape:window-y="0" inkscape:zoom="0.24748737" pagecolor="#ffffff" showgrid="false" showguides="false" units="cm">
	</sodipodi:namedview>
<ellipse id="path5092" class="st0" cx="198.7" cy="114.8" rx="8.5" ry="8.8"/>
<ellipse id="path5094" class="st0" cx="596.9" cy="107.4" rx="24.3" ry="24.3"/>
<g>
	<g>
		<path id="path5090" inkscape:connector-curvature="0" sodipodi:nodetypes="cccccssccccscccccc" class="st1" d="M396.5,0
			C300.7,0.1,204.9,3.7,109,11.6c0,0-94.6,4.9-100.3,61.8v161V1472c2.3,61.3,53.1,84,225.2,88.1c113.9,2.7,220.8,2.5,331.9,0
			c172.1-3.8,223.3-26.8,225.6-88.1V234.4v-161c-4.2-60.6-100.3-61.8-100.3-61.8C595.2,3.7,499.1,0,403.3,0L396.5,0z M38.8,130.3
			h720.1v1280.1H38.8L38.8,130.3z"/>
		<rect id="rect5114" x="789.3" y="195" class="st1" width="7.5" height="102"/>
	</g>
	<rect id="rect5116" y="427.7" class="st1" width="13.3" height="361.4"/>
</g>
<image style="overflow:visible;" width="720" height="1280" xlink:href="infestus-app.jpg"  transform="matrix(1 0 0 1 38.8234 130.7527)">
</image>
</svg>
