<?xml version="1.0" encoding="utf-8"?>
<!-- Generator: Adobe Illustrator 21.0.0, SVG Export Plug-In . SVG Version: 6.00 Build 0)  -->
<svg version="1.1" id="Layer_1" xmlns="http://www.w3.org/2000/svg" xmlns:xlink="http://www.w3.org/1999/xlink" x="0px" y="0px"
	 viewBox="0 0 21.6 21.9" style="enable-background:new 0 0 21.6 21.9;" xml:space="preserve">
<style type="text/css">
	.st0{fill:url(#SVGID_1_);}
	.st1{fill:url(#SVGID_2_);}
	.st2{fill:url(#SVGID_3_);}
	.st3{fill:url(#XMLID_2_);}
	.st4{fill:url(#SVGID_4_);}
	.st5{fill:url(#XMLID_3_);}
	.st6{fill:url(#XMLID_4_);}
	.st7{fill:url(#SVGID_5_);}
	.st8{fill:url(#SVGID_6_);}
	.st9{fill:url(#SVGID_7_);}
	.st10{fill:url(#SVGID_8_);}
	.st11{fill:url(#SVGID_9_);}
	.st12{fill:url(#SVGID_10_);}
	.st13{fill:url(#SVGID_11_);}
	.st14{fill:url(#SVGID_12_);}
	.st15{fill:url(#SVGID_13_);}
	.st16{fill:url(#SVGID_14_);}
	.st17{fill:url(#SVGID_15_);}
	.st18{fill:url(#SVGID_16_);}
	.st19{fill:url(#SVGID_17_);}
	.st20{fill:url(#SVGID_18_);}
	.st21{fill:url(#SVGID_19_);}
	.st22{fill:#189F88;}
	.st23{fill:#181944;}
	.st24{fill:url(#SVGID_20_);}
	.st25{fill:url(#SVGID_21_);}
	.st26{fill:url(#SVGID_22_);}
	.st27{fill:url(#SVGID_23_);}
	.st28{fill:url(#SVGID_24_);}
	.st29{fill:url(#SVGID_25_);}
	.st30{fill:url(#SVGID_26_);}
	.st31{fill:url(#SVGID_27_);}
	.st32{fill:url(#SVGID_28_);}
	.st33{fill:url(#SVGID_29_);}
	.st34{fill:url(#SVGID_30_);}
	.st35{fill:url(#SVGID_31_);}
	.st36{fill:url(#SVGID_32_);}
	.st37{fill:url(#SVGID_33_);}
</style>
<g>
	<g>
		<g id="XMLID_1065_">
			
				<linearGradient id="SVGID_1_" gradientUnits="userSpaceOnUse" x1="16.9479" y1="10.7775" x2="17.0467" y2="10.7775" gradientTransform="matrix(1 0 0 -1 0 24)">
				<stop  offset="0" style="stop-color:#0E0811"/>
				<stop  offset="1" style="stop-color:#060407"/>
			</linearGradient>
			<path class="st0" d="M17,13.2C17,13.2,16.9,13.2,17,13.2L17,13.2z"/>
		</g>
		<g id="XMLID_1064_">
			
				<linearGradient id="SVGID_2_" gradientUnits="userSpaceOnUse" x1="14.314" y1="4.9275" x2="17.6137" y2="4.9275" gradientTransform="matrix(1 0 0 -1 0 24)">
				<stop  offset="0" style="stop-color:#0E0811"/>
				<stop  offset="1" style="stop-color:#060407"/>
			</linearGradient>
			<path class="st1" d="M17.6,17.4c-0.1,0.1-0.1,0.3-0.2,0.4c-0.6,1-1.5,1.8-2.4,2.5l0,0c-0.2,0.1-0.4,0.3-0.6,0.4v-0.2l0,0l0,0
				c1.2-0.7,2.2-1.7,3-2.8C17.5,17.5,17.5,17.5,17.6,17.4z"/>
		</g>
		<g id="XMLID_1046_">
			<g>
				<g id="XMLID_1051_">
					<g>
						
							<linearGradient id="SVGID_3_" gradientUnits="userSpaceOnUse" x1="11.3195" y1="20.9664" x2="11.3195" y2="11.726" gradientTransform="matrix(1 0 0 -1 0 24)">
							<stop  offset="6.878307e-02" style="stop-color:#910022"/>
							<stop  offset="0.1481" style="stop-color:#2E7E66"/>
							<stop  offset="0.3862" style="stop-color:#0D3E50"/>
							<stop  offset="1" style="stop-color:#0B0D27"/>
						</linearGradient>
						<path class="st2" d="M14.6,10.6c-0.2,0-0.4,0-0.5-0.1c-0.2-0.1-0.4-0.2-0.6-0.1c0.1-0.1,0.1-0.1,0.2-0.1c0.1,0,0.1-0.1,0-0.1
							c-0.1-0.1-0.4,0-0.4,0.1c-0.1,0.2-0.2,0.2-0.4,0.1c-0.1-0.1-0.2-0.1-0.3-0.2c0.1,0,0.1-0.1,0.2-0.1c0.3-0.1,0.3-0.2,0.1-0.4
							c-0.1-0.1-0.1-0.2-0.1-0.4c0.1,0.1,0.1,0.2,0.2,0.3c0.1-0.1,0-0.1,0-0.2c-0.1-0.2,0-0.3,0.2-0.3c0.1,0,0.2,0,0.3-0.1
							c0-0.1-0.1,0-0.1,0c-0.1,0-0.3,0.1-0.4,0c-0.1-0.1,0-0.2-0.1-0.4c-0.1-0.1,0-0.1,0.1-0.1c0.2,0.1,0.4,0.1,0.6,0
							c-0.1-0.1-0.2-0.1-0.3-0.2c0.1-0.1,0.2,0,0.3-0.1l0,0c-0.4-0.1-0.8-0.2-1.3-0.3c-0.1,0-0.1,0-0.2-0.1
							c-0.2-0.3-0.2-0.3,0.1-0.6l0.1-0.1c0.1-0.1,0.2,0,0.2,0.1c0.1,0.1,0,0.1,0,0.2c-0.1,0.2-0.1,0.3,0.1,0.4
							c0.1,0.1,0.3,0,0.4-0.1c0-0.1,0.1-0.1,0.2-0.1c0.2,0,0.4,0,0.6,0c0.1,0,0.2,0,0.2-0.1s-0.1,0-0.2,0c-0.1,0-0.2,0.1-0.3,0
							s-0.2-0.1-0.3-0.2c-0.3-0.2-0.3-0.7-0.5-1c-0.4-0.4-1.2-0.4-1.6-0.8c-0.1-0.1-0.2-0.2-0.3-0.1s-0.2,0-0.3,0
							c-0.2-0.1-0.4-0.2-0.6-0.3C9.8,5.1,9.6,5,9.5,5C9.3,5,9.3,4.9,9.3,4.7c0-0.1,0-0.2,0-0.2c0-0.1,0-0.2,0.1-0.2
							c0.1-0.1,0-0.2,0-0.3S9.3,3.9,9.2,3.9c-0.1,0-0.2,0-0.3,0c-0.3,0-0.3,0-0.2-0.3c0-0.2,0.1-0.2,0.3-0.1c0.1,0,0.1,0.1,0.2,0
							C9,3.4,8.9,3.4,8.8,3.3c0.1,0,0.2,0.1,0.3,0.1C9,3.2,8.9,3.1,8.7,3C8.6,3.9,8.3,4.3,8.3,4.3l0.1,0.9L8.3,5.4
							c0,0,0.1-0.1,0.2-0.1c0.1,0,0.3-0.1,0.4-0.3C9,5.2,9.1,5.4,9.1,5.5c0,0.2,0,0.4-0.2,0.4C8.7,6,8.5,5.9,8.4,5.7
							c0-0.1-0.1-0.1-0.1-0.2L8,6l0.1,0.5C8.3,7,8.8,7.3,9.2,7.6l0.1,0.3l0.4,0.3C9.9,8.4,10,8.5,10,8.8L9.9,9.5l0.2,0.4l0.3,0.8
							l0.4,0.3H11c0.1-0.1,0.1-0.1,0-0.2c-0.1,0-0.1-0.1-0.1-0.2c0-0.1,0.1-0.1,0.2-0.1c0.2,0.1,0.3,0,0.5-0.1
							c0.1,0.2,0.1,0.3-0.1,0.4h-0.1c-0.1,0-0.3,0.1-0.3,0.2l2.1,0.5v-0.1c-0.2,0.1-0.3-0.1-0.4-0.1c-0.1,0,0-0.1,0-0.1
							c0.1-0.1,0.2-0.2,0.3-0.1c0.2,0.1,0.3,0.2,0.5,0.4s0.2,0.2,0.1,0.4l0.2,0.2l0.3,0.2c0,0,0,0,0.1,0c-0.1-0.1-0.2-0.3-0.2-0.4
							c0,0,0,0-0.1,0.1c0,0,0-0.1,0.1-0.1c0.1-0.1,0-0.2,0-0.4c0-0.1,0-0.2,0.2-0.1c0.1,0,0.2,0,0.2,0c0.1-0.1,0-0.1,0-0.2
							c-0.1-0.1-0.2-0.2-0.3-0.3C14.3,10.7,14.5,10.8,14.6,10.6z M11.3,6.7c0.1-0.1,0.2,0,0.2,0c0.1,0.1,0.1,0.1,0.2,0.2l0,0
							C11.8,7,11.9,7.1,12,7.2v0.1c0,0-0.1,0.1-0.1,0c-0.2-0.2-0.5-0.1-0.7-0.4C11.1,6.8,11.2,6.8,11.3,6.7z M9.3,6.1
							c0,0.1-0.1,0.3-0.1,0.4C9.1,6.5,9,6.4,8.9,6.4c-0.1,0-0.2-0.2-0.2-0.3S8.8,6,8.9,6C9,6,9.2,6,9.2,5.9s0-0.2,0-0.3
							c0-0.4,0.1-0.5,0.5-0.3c0.2,0.1,0.4,0.2,0.7,0.3c0.3,0.1,0.5,0.4,0.5,0.6c-0.2,0-0.4,0-0.5-0.2c0,0-0.1,0-0.2,0
							C10,6,9.9,6,9.7,6C9.5,6,9.3,6,9.3,6.1z M9.5,6.9L9.6,7v0.1H9.5C9.4,7,9.4,7,9.5,6.9C9.4,6.7,9.4,6.5,9.4,6.3
							c0-0.1,0-0.2,0.1-0.2c0.2,0,0.5,0,0.7,0C10,6.2,9.7,6.3,9.5,6.6C9.5,6.7,9.4,6.8,9.5,6.9z M10.1,7.5c0,0.2-0.1,0.1-0.2,0.1
							c-0.1,0-0.1-0.1,0-0.1c0.1-0.1,0.1-0.2,0-0.3c-0.1,0,0-0.1,0-0.1c0.2,0,0.3-0.1,0.5,0c0.1,0,0,0.1,0,0.1
							c-0.1,0.1-0.1,0.1-0.2,0.2C10.2,7.4,10.1,7.4,10.1,7.5z M10.4,7.4c0-0.1,0-0.1,0.1-0.2c0,0,0.1-0.1,0.2,0
							c0.1,0.1,0.3,0.2,0.4,0.4c0.1,0.1,0,0.2-0.2,0.2c0-0.1,0.1-0.2-0.1-0.3C10.6,7.5,10.6,7.5,10.4,7.4
							C10.4,7.5,10.4,7.4,10.4,7.4z M11.6,10.6c-0.1-0.1-0.2-0.1-0.3-0.1c-0.2,0-0.3-0.1-0.3-0.3c0-0.1,0-0.2-0.1-0.1
							c0,0-0.1-0.1-0.2-0.1V9.9c0.1,0,0.1,0,0.2,0c0.1,0,0.2,0.1,0.3-0.1h0.1c0.2,0.1,0.3,0.3,0.4,0.5
							C11.8,10.4,11.6,10.5,11.6,10.6z M12.3,11C12.3,11,12.2,11,12.3,11c-0.2-0.2-0.3-0.3-0.4-0.5c0-0.1-0.1-0.2,0.1-0.2
							c0,0.1-0.1,0.1,0,0.2c0.1,0.1,0.2,0.1,0.3,0.2c0.1,0,0.2,0,0.2,0.1C12.5,10.9,12.4,10.9,12.3,11z M12.6,9.4
							c0,0.1-0.1,0.1-0.1,0.1c-0.1,0-0.1,0-0.2,0.1c-0.1,0.1-0.3,0.1-0.5,0.2c-0.1,0-0.1,0-0.1-0.1s0.1-0.1,0.1-0.1
							c0.1,0,0,0.1,0.1,0.1c0-0.1,0-0.2-0.1-0.2s-0.1,0-0.1-0.1s0.1-0.1,0.2-0.1c0.1,0,0.1,0,0.2-0.1c-0.4,0.1-0.7-0.2-0.9-0.4
							c-0.1-0.1-0.2-0.1-0.3-0.1c0,0.1,0.1,0.2-0.1,0.2c-0.1,0-0.1,0.1-0.1,0.1c0,0.1,0,0.1-0.1,0.1s-0.1,0-0.1-0.1
							c0-0.2,0-0.4,0-0.6c0-0.1,0-0.1,0.1-0.2c0.1-0.1,0.2-0.1,0.3,0.1L11,8.4c0.1,0.2,0.3,0.2,0.4,0c0.1-0.2,0.3-0.1,0.4,0
							c0,0,0.1,0.1,0,0.1c-0.2,0.2,0,0.2,0.1,0.3H12c0.4-0.1,0.5,0.1,0.5,0.5c-0.2-0.1-0.1-0.1,0-0.1C12.6,9.3,12.6,9.3,12.6,9.4z
							 M10.1,10.6C10.1,10.6,10.1,10.5,10.1,10.6C10.1,10.5,10.1,10.5,10.1,10.6C10,10.5,10,10.4,10,10.4s-0.1,0-0.1,0.1l0,0
							c-0.1,0-0.1,0.1-0.1,0.1C10,10.6,10.1,10.6,10.1,10.6C10.2,10.6,10.1,10.6,10.1,10.6z M9.2,8.4L9.2,8.4L9.2,8.4L9.2,8.4z"/>
					</g>
				</g>
				
					<linearGradient id="XMLID_2_" gradientUnits="userSpaceOnUse" x1="15.9571" y1="16752.8887" x2="17.0643" y2="16752.8887" gradientTransform="matrix(1 0 0 1 0 -16739.0156)">
					<stop  offset="0" style="stop-color:#910022"/>
					<stop  offset="0.2804" style="stop-color:#2E7E66"/>
					<stop  offset="0.4339" style="stop-color:#0D3E50"/>
					<stop  offset="0.6349" style="stop-color:#121941"/>
				</linearGradient>
				<path id="XMLID_1050_" class="st3" d="M17,13.6c-0.2,0.5-0.6,0.5-0.9,0.6c-0.1,0-0.2-0.1-0.2-0.2c0.1-0.2,0.2-0.3,0.3-0.4
					c0.2-0.1,0.3,0,0.5-0.1C16.9,13.5,16.9,13.8,17,13.6z"/>
				<g id="XMLID_1049_">
					
						<linearGradient id="SVGID_4_" gradientUnits="userSpaceOnUse" x1="13.568" y1="14.7412" x2="15.105" y2="14.7412" gradientTransform="matrix(1 0 0 -1 0 24)">
						<stop  offset="0" style="stop-color:#910022"/>
						<stop  offset="0.2804" style="stop-color:#2E7E66"/>
						<stop  offset="0.4339" style="stop-color:#0D3E50"/>
						<stop  offset="0.6349" style="stop-color:#121941"/>
					</linearGradient>
					<path class="st4" d="M13.9,9.4c-0.1-0.1-0.2-0.1-0.3-0.2c0,0-0.1,0-0.1-0.1c0,0,0-0.1,0.1-0.1c0.3,0.1,0.5,0,0.7-0.1
						c0.1,0,0.1,0,0.2,0c0,0,0.1,0.1,0.1,0c0.3-0.1,0.2,0.1,0.2,0.2c0,0.1,0,0.3,0.2,0.3c0.1,0,0,0.1,0,0.1c0,0.1-0.1,0.2-0.2,0.2
						c-0.1,0-0.1,0-0.1-0.1c0-0.2-0.1-0.3-0.1-0.5s-0.2-0.2-0.3-0.3c-0.2-0.1-0.2,0.1-0.2,0.2c0,0,0.1,0.1,0,0.1
						C14.1,9.6,14,9.5,13.9,9.4C13.9,9.5,13.9,9.4,13.9,9.4z"/>
				</g>
				
					<linearGradient id="XMLID_3_" gradientUnits="userSpaceOnUse" x1="14.8548" y1="16751.3398" x2="15.5734" y2="16751.3398" gradientTransform="matrix(1 0 0 1 0 -16739.0156)">
					<stop  offset="0" style="stop-color:#910022"/>
					<stop  offset="0.2804" style="stop-color:#2E7E66"/>
					<stop  offset="0.4339" style="stop-color:#0D3E50"/>
					<stop  offset="0.6349" style="stop-color:#121941"/>
				</linearGradient>
				<path id="XMLID_1048_" class="st5" d="M15.6,12.3c0,0.1-0.1,0.2-0.1,0.2s-0.1,0-0.2,0.1c0.1-0.2,0-0.2-0.2-0.3
					c-0.1,0-0.1-0.1-0.2-0.1c-0.1,0-0.1-0.1,0-0.2l0,0c0,0,0,0,0.1,0c0,0,0,0,0.1,0c0.1,0.1,0.3,0.1,0.4,0.2l0,0l0,0
					C15.5,12.2,15.6,12.2,15.6,12.3z"/>
				
					<linearGradient id="XMLID_4_" gradientUnits="userSpaceOnUse" x1="9.2195" y1="16747.4395" x2="9.2195" y2="16747.4395" gradientTransform="matrix(1 0 0 1 0 -16739.0156)">
					<stop  offset="0" style="stop-color:#910022"/>
					<stop  offset="0.2804" style="stop-color:#2E7E66"/>
					<stop  offset="0.4339" style="stop-color:#0D3E50"/>
					<stop  offset="0.6349" style="stop-color:#121941"/>
				</linearGradient>
				<path id="XMLID_1047_" class="st6" d="M9.2,8.4L9.2,8.4L9.2,8.4L9.2,8.4L9.2,8.4L9.2,8.4z"/>
			</g>
		</g>
		<g id="XMLID_1030_">
			<g>
				<g id="XMLID_1045_">
					
						<linearGradient id="SVGID_5_" gradientUnits="userSpaceOnUse" x1="7.74" y1="18.7775" x2="11.879" y2="18.7775" gradientTransform="matrix(1 0 0 -1 0 24)">
						<stop  offset="7.936508e-02" style="stop-color:#910022"/>
						<stop  offset="0.2487" style="stop-color:#2E7E66"/>
						<stop  offset="0.6614" style="stop-color:#0D3E50"/>
						<stop  offset="0.7831" style="stop-color:#121941"/>
						<stop  offset="1" style="stop-color:#0A0F25"/>
					</linearGradient>
					<path class="st7" d="M7.7,6.4c0.8,0.2,1.6,0.3,2.4,0.5c0-0.2-0.1-0.2-0.1-0.4c-0.1-0.3,0-0.4,0.2-0.6c0.5-0.3,0.9-0.6,1.4-0.9
						c0.1,0,0.1-0.1,0.2-0.1c-0.7-0.5-1.3-0.9-2-1.4c0,0.6,0,1.1,0,1.6l0,0c0-0.2-0.1-0.3-0.1-0.5C9,5.3,8.4,5.8,7.7,6.4z"/>
				</g>
				<g id="XMLID_1044_">
					
						<linearGradient id="SVGID_6_" gradientUnits="userSpaceOnUse" x1="15.2195" y1="12.9775" x2="18.8754" y2="12.9775" gradientTransform="matrix(1 0 0 -1 0 24)">
						<stop  offset="0" style="stop-color:#910022"/>
						<stop  offset="0.2275" style="stop-color:#2E7E66"/>
						<stop  offset="0.4339" style="stop-color:#0D3E50"/>
						<stop  offset="0.6349" style="stop-color:#121941"/>
					</linearGradient>
					<path class="st8" d="M16.7,11.1c0,0.7,0.1,1.4,0.1,2.1c0.7-0.5,1.4-1,2-1.4c-0.3-0.2-0.5-0.3-0.8-0.5c-0.2-0.1-0.4-0.3-0.5-0.5
						c-0.2-0.6-0.6-1.1-0.9-1.6c-0.1-0.1-0.1-0.2-0.2-0.4c-0.4,0.8-0.8,1.6-1.2,2.5C15.7,11.2,16.2,11.2,16.7,11.1z"/>
				</g>
				<g id="XMLID_1043_">
					
						<linearGradient id="SVGID_7_" gradientUnits="userSpaceOnUse" x1="16.4984" y1="20.2275" x2="18.7939" y2="20.2275" gradientTransform="matrix(1 0 0 -1 0 24)">
						<stop  offset="0" style="stop-color:#910022"/>
						<stop  offset="0.2275" style="stop-color:#2E7E66"/>
						<stop  offset="0.4339" style="stop-color:#0D3E50"/>
						<stop  offset="0.6349" style="stop-color:#121941"/>
					</linearGradient>
					<path class="st9" d="M18.8,4.1c-0.6-0.6-1.2-1.2-1.8-1.7c-0.2,0.9-0.3,1.8-0.5,2.7C17.3,4.7,18,4.4,18.8,4.1z"/>
				</g>
				<g id="XMLID_1042_">
					
						<linearGradient id="SVGID_8_" gradientUnits="userSpaceOnUse" x1="11.6786" y1="13.2775" x2="14.1192" y2="13.2775" gradientTransform="matrix(1 0 0 -1 0 24)">
						<stop  offset="0" style="stop-color:#910022"/>
						<stop  offset="0.2275" style="stop-color:#2E7E66"/>
						<stop  offset="0.4339" style="stop-color:#0D3E50"/>
						<stop  offset="0.6349" style="stop-color:#121941"/>
					</linearGradient>
					<path class="st10" d="M14.1,11.9c-0.2-0.8-0.3-1.6-0.5-2.4c-0.7,0.7-1.3,1.3-1.9,1.9C12.5,11.6,13.3,11.7,14.1,11.9z"/>
				</g>
				<g id="XMLID_1041_">
					
						<linearGradient id="SVGID_9_" gradientUnits="userSpaceOnUse" x1="11.1833" y1="19.3775" x2="13.5478" y2="19.3775" gradientTransform="matrix(1 0 0 -1 0 24)">
						<stop  offset="0" style="stop-color:#910022"/>
						<stop  offset="0.2275" style="stop-color:#2E7E66"/>
						<stop  offset="0.4339" style="stop-color:#0D3E50"/>
						<stop  offset="0.6349" style="stop-color:#121941"/>
					</linearGradient>
					<path class="st11" d="M11.2,5.9c0.8-0.3,1.6-0.6,2.4-0.8c-0.6-0.6-1.1-1.2-1.7-1.8C11.6,4.1,11.4,5,11.2,5.9z"/>
				</g>
				<g id="XMLID_1040_">
					
						<linearGradient id="SVGID_10_" gradientUnits="userSpaceOnUse" x1="19.1049" y1="13.8775" x2="21.5377" y2="13.8775" gradientTransform="matrix(1 0 0 -1 0 24)">
						<stop  offset="0" style="stop-color:#910022"/>
						<stop  offset="0.2275" style="stop-color:#2E7E66"/>
						<stop  offset="0.4339" style="stop-color:#0D3E50"/>
						<stop  offset="0.6349" style="stop-color:#121941"/>
					</linearGradient>
					<path class="st12" d="M21.5,11.3c-0.2-0.8-0.3-1.6-0.5-2.4c-0.7,0.7-1.3,1.3-1.9,2C19.9,10.9,20.7,11.1,21.5,11.3z"/>
				</g>
				<g id="XMLID_1039_">
					
						<linearGradient id="SVGID_11_" gradientUnits="userSpaceOnUse" x1="18.2195" y1="17.8275" x2="20.5535" y2="17.8275" gradientTransform="matrix(1 0 0 -1 0 24)">
						<stop  offset="0" style="stop-color:#910022"/>
						<stop  offset="0.2275" style="stop-color:#2E7E66"/>
						<stop  offset="0.4339" style="stop-color:#0D3E50"/>
						<stop  offset="0.6349" style="stop-color:#121941"/>
					</linearGradient>
					<path class="st13" d="M18.2,4.8c0.2,0.9,0.4,1.8,0.6,2.7c0.6-0.6,1.2-1.2,1.7-1.8C19.7,5.4,19,5.1,18.2,4.8z"/>
				</g>
				<g id="XMLID_1038_">
					
						<linearGradient id="SVGID_12_" gradientUnits="userSpaceOnUse" x1="15.537" y1="16.5775" x2="17.799" y2="16.5775" gradientTransform="matrix(1 0 0 -1 0 24)">
						<stop  offset="0" style="stop-color:#910022"/>
						<stop  offset="0.2275" style="stop-color:#2E7E66"/>
						<stop  offset="0.4339" style="stop-color:#0D3E50"/>
						<stop  offset="0.6349" style="stop-color:#121941"/>
					</linearGradient>
					<path class="st14" d="M15.9,8.8c0.6-0.6,1.2-1.1,1.9-1.7C17,6.7,16.3,6.4,15.5,6C15.7,7,15.8,7.9,15.9,8.8z"/>
				</g>
				<g id="XMLID_1037_">
					
						<linearGradient id="SVGID_13_" gradientUnits="userSpaceOnUse" x1="10.2477" y1="22.5775" x2="12.7348" y2="22.5775" gradientTransform="matrix(1 0 0 -1 0 24)">
						<stop  offset="0" style="stop-color:#910022"/>
						<stop  offset="0.2275" style="stop-color:#2E7E66"/>
						<stop  offset="0.4339" style="stop-color:#0D3E50"/>
						<stop  offset="0.6349" style="stop-color:#121941"/>
					</linearGradient>
					<path class="st15" d="M12,0.2c-0.6,0.7-1.1,1.4-1.7,2.2c0.9,0.1,1.7,0.1,2.5,0.2C12.5,1.8,12.2,1,12,0.2z"/>
				</g>
				<g id="XMLID_1036_">
					
						<linearGradient id="SVGID_14_" gradientUnits="userSpaceOnUse" x1="12.6671" y1="15.7275" x2="15.4004" y2="15.7275" gradientTransform="matrix(1 0 0 -1 0 24)">
						<stop  offset="0" style="stop-color:#910022"/>
						<stop  offset="0.2275" style="stop-color:#2E7E66"/>
						<stop  offset="0.4339" style="stop-color:#0D3E50"/>
						<stop  offset="0.6349" style="stop-color:#121941"/>
					</linearGradient>
					<path class="st16" d="M15.4,7.2c-0.9,0-1.8,0-2.7,0c0.5,0.7,0.9,1.4,1.4,2.1C14.5,8.6,14.9,7.9,15.4,7.2z"/>
				</g>
				<g id="XMLID_1035_">
					
						<linearGradient id="SVGID_15_" gradientUnits="userSpaceOnUse" x1="13.5867" y1="21.4275" x2="15.672" y2="21.4275" gradientTransform="matrix(1 0 0 -1 0 24)">
						<stop  offset="0" style="stop-color:#910022"/>
						<stop  offset="0.2275" style="stop-color:#2E7E66"/>
						<stop  offset="0.4339" style="stop-color:#0D3E50"/>
						<stop  offset="0.6349" style="stop-color:#121941"/>
					</linearGradient>
					<path class="st17" d="M15.6,1.2c-0.7,0.5-1.4,0.9-2.1,1.4c0.7,0.4,1.4,0.9,2.1,1.3C15.6,2.9,15.6,2.1,15.6,1.2z"/>
				</g>
				<g id="XMLID_1034_">
					
						<linearGradient id="SVGID_16_" gradientUnits="userSpaceOnUse" x1="14.0338" y1="18.9275" x2="16.3174" y2="18.9275" gradientTransform="matrix(1 0 0 -1 0 24)">
						<stop  offset="0" style="stop-color:#910022"/>
						<stop  offset="0.2275" style="stop-color:#2E7E66"/>
						<stop  offset="0.4339" style="stop-color:#0D3E50"/>
						<stop  offset="0.6349" style="stop-color:#121941"/>
					</linearGradient>
					<path class="st18" d="M16.3,5.4c-0.6-0.6-1.2-1.1-1.8-1.7c-0.2,0.9-0.3,1.8-0.5,2.7C14.8,6.1,15.5,5.8,16.3,5.4z"/>
				</g>
				<g id="XMLID_1033_">
					
						<linearGradient id="SVGID_17_" gradientUnits="userSpaceOnUse" x1="17.5962" y1="15.1775" x2="19.9608" y2="15.1775" gradientTransform="matrix(1 0 0 -1 0 24)">
						<stop  offset="0" style="stop-color:#910022"/>
						<stop  offset="0.2275" style="stop-color:#2E7E66"/>
						<stop  offset="0.4339" style="stop-color:#0D3E50"/>
						<stop  offset="0.6349" style="stop-color:#121941"/>
					</linearGradient>
					<path class="st19" d="M17.6,10.1c0.8-0.3,1.6-0.6,2.4-0.8c-0.6-0.6-1.1-1.2-1.7-1.8C18,8.3,17.8,9.2,17.6,10.1z"/>
				</g>
				<g id="XMLID_1032_">
					
						<linearGradient id="SVGID_18_" gradientUnits="userSpaceOnUse" x1="8.7684" y1="21.1775" x2="10.9525" y2="21.1775" gradientTransform="matrix(1 0 0 -1 0 24)">
						<stop  offset="0" style="stop-color:#910022"/>
						<stop  offset="0.2275" style="stop-color:#2E7E66"/>
						<stop  offset="0.4339" style="stop-color:#0D3E50"/>
						<stop  offset="0.6349" style="stop-color:#121941"/>
					</linearGradient>
					<path class="st20" d="M9,1.4C8.9,2.3,8.8,3.2,8.7,4.2c0.7-0.4,1.5-0.8,2.2-1.2C10.3,2.4,9.6,1.9,9,1.4z"/>
				</g>
				<g id="XMLID_1031_">
					
						<linearGradient id="SVGID_19_" gradientUnits="userSpaceOnUse" x1="17.9117" y1="11.0775" x2="20.3445" y2="11.0775" gradientTransform="matrix(1 0 0 -1 0 24)">
						<stop  offset="2.645503e-02" style="stop-color:#910022"/>
						<stop  offset="0.2275" style="stop-color:#2E7E66"/>
						<stop  offset="0.4339" style="stop-color:#0D3E50"/>
						<stop  offset="0.6349" style="stop-color:#121941"/>
					</linearGradient>
					<path class="st21" d="M20.3,14.1c-0.2-0.8-0.3-1.6-0.5-2.4c-0.7,0.7-1.3,1.3-1.9,2C18.7,13.8,19.5,14,20.3,14.1z"/>
				</g>
			</g>
		</g>
		<g id="XMLID_1001_">
			<g>
				<path id="XMLID_1028_" class="st22" d="M14.4,20.5C14.3,20.5,14.3,20.5,14.4,20.5l-0.1,0.2c0.2-0.1,0.4-0.3,0.6-0.4
					C14.7,20.3,14.5,20.4,14.4,20.5z"/>
				<g id="XMLID_1009_">
					<g>
						<path class="st23" d="M16.8,13.5c-0.2,0-0.4-0.1-0.5,0c-0.2,0.1-0.3,0.2-0.4,0.4c-0.1,0.1,0.1,0.3,0.3,0.3
							c0.3-0.1,0.7-0.2,0.9-0.7C16.9,13.8,16.9,13.5,16.8,13.5z M15.7,11.1c0.1,0,0.2,0,0.2-0.1C15.8,11,15.7,11,15.7,11.1
							C15.6,11,15.6,11.1,15.7,11.1z M15.4,12.1L15.4,12.1L15.4,12.1L15.4,12.1C15.2,12,15.1,12,15,11.9c0,0,0,0-0.1,0
							c0,0-0.1,0.1-0.1,0l0,0c0,0.1,0,0.1,0,0.2c0.1,0,0.1,0.1,0.2,0.1c0.1,0,0.2,0.1,0.2,0.3c0.1,0,0.1,0,0.2,0
							c0.1,0,0.1-0.2,0.1-0.3C15.6,12.2,15.5,12.2,15.4,12.1z M15.1,14c-0.1,0-0.2,0.2-0.1,0.1c0.1-0.2,0-0.2-0.1-0.3
							c0-0.1,0,0,0.1-0.1c-0.1,0-0.2-0.2-0.2-0.2h-0.1l-0.1,0.2c0,0.3,0.5,0.8,0.7,1c0,0.1,0.1-0.3,0.1-0.3h-0.1c0,0,0.1,0,0.1-0.1
							c0.1,0,0.1,0,0.2-0.1c0-0.1,0.1-0.1,0-0.2C15.4,14.1,15.2,13.9,15.1,14z M14.3,20.5v0.2c0.2-0.1,0.4-0.3,0.6-0.4
							C14.7,20.3,14.5,20.4,14.3,20.5L14.3,20.5z M14.5,11.3c0.1-0.1,0-0.1,0-0.2c-0.1-0.1-0.2-0.2-0.3-0.3c0.1-0.1,0.3,0,0.4-0.1
							c-0.2,0-0.4,0-0.5-0.1h-0.5c0,0.1-0.1,0.1,0,0.3c0.1,0.3,0.4,0,0.4,0.3c0,0.1,0,0.2,0.1,0.2c-0.1,0-0.1,0.2,0,0.5
							c0.1-0.1,0-0.2,0-0.4c0-0.1,0-0.2,0.2-0.1C14.4,11.4,14.4,11.4,14.5,11.3z M14.1,11.1C14,11.1,14,11,14.1,11.1
							C14,11,14,11,14.1,11.1C14.1,11,14.1,11,14.1,11.1L14.1,11.1z M14.1,12.3L14,12.2c-0.1,0-0.1,0.2,0,0.2c0,0.1,0.1,0.1,0,0.2
							c-0.1-0.1,0-0.1,0-0.2c0-0.1-0.1-0.3-0.2-0.3c-0.1,0-0.2,0.2-0.2,0.3s0.1,0.3,0.1,0.4c0,0.2,0.1,0,0.2,0v-0.1
							c0,0,0.1,0.2,0.1,0.1c0.1-0.1,0.3-0.4,0.3-0.5C14.3,12.4,14.1,12.3,14.1,12.3z M13.7,15.6c0,0,0-0.1,0-0.2
							c0-0.2-0.1-0.2-0.2-0.2h-0.1c-0.1,0-0.3,0.1-0.3,0H13c-0.2,0-0.4,0-0.5,0.1c-0.1,0-0.1,0-0.1,0.1c0.1,0.3,0.3,0.3,0.5,0.2
							c0.1-0.1,0.2,0,0.2,0.1s0.1,0.3,0.1,0.4c0.1-0.3,0.2-0.2,0.4,0h0.1c0.1,0,0.1,0,0.1,0C13.7,15.8,13.7,15.7,13.7,15.6z
							 M12.4,12.4c0.1-0.1,0.2-0.3,0.1-0.3c0,0-0.1,0-0.1-0.1s-0.2-0.4-0.3-0.4s-0.2,0.3-0.3,0.4c-0.1,0.1-0.1,0.3-0.2,0.5
							c0.2-0.1,0.4-0.1,0.4,0C12.2,12.4,12.3,12.4,12.4,12.4z M11.5,11.6c0,0.1-0.1,0.3-0.2,0.3c0,0,0,0-0.1,0s0-0.1,0-0.1
							s0-0.1-0.1-0.1c0,0-0.2-0.1-0.2,0s-0.1,0.2-0.1,0.3c0.1,0.1,0.2,0.1,0.3,0.2l0.2,0.2c0.1,0.1,0.2-0.1,0.2-0.2
							C11.6,12,11.5,11.9,11.5,11.6C11.5,11.6,11.5,11.5,11.5,11.6z M11,11.3C11,11.3,11,11.2,11,11.3c0.1-0.1,0.1-0.2,0.1-0.2H11
							l0,0c-0.1,0.1-0.1,0.2-0.2,0.3C10.9,11.4,11,11.4,11,11.3z M10.3,11.5L10.3,11.5L10.3,11.5L10.3,11.5L10.3,11.5z M10.1,10.6
							L10.1,10.6L10.1,10.6C10,10.5,10,10.4,10,10.4s-0.1,0-0.1,0.1c-0.1-0.1-0.2-0.1-0.2-0.2c0.1,0,0.1,0.1,0.2,0.2
							c-0.1,0-0.1,0.1-0.1,0.1C10,10.6,10.1,10.6,10.1,10.6C10.2,10.6,10.1,10.6,10.1,10.6z M9.5,8.4c-0.1,0-0.1-0.1-0.2-0.1v0.1
							l0,0V8.3C9.2,8.2,9,8.4,9,8.5C8.9,8.7,9,8.9,9,9.2c0.1,0,0.1,0,0.2,0s0.1,0,0.2,0c0.1,0,0.1-0.1,0.1-0.2
							c0-0.1-0.1-0.1-0.2-0.2c0-0.1,0-0.2,0.2-0.3c0.1,0,0.1,0,0.1-0.1C9.6,8.4,9.5,8.4,9.5,8.4z M9,8L8.9,7.9
							c-0.1,0-0.1,0.2-0.2,0.2C8.6,8.2,8.5,8.4,8.5,8.5c0,0,0,0.1,0.1,0.1c0,0,0.1,0,0.2,0c0.1,0,0.1-0.1,0.2,0l0,0c0,0,0,0,0.1,0
							V8.5c0-0.1,0-0.2,0-0.4C9,8.1,9,8,9,8z M8.2,5.6l0.1-0.2C8.2,5.5,8.2,5.5,8.2,5.6z"/>
					</g>
				</g>
				<g id="XMLID_1003_">
					<g>
						
							<linearGradient id="SVGID_20_" gradientUnits="userSpaceOnUse" x1="3.7612" y1="20.2293" x2="13.8506" y2="2.754" gradientTransform="matrix(1 0 0 -1 0 24)">
							<stop  offset="0" style="stop-color:#910022"/>
							<stop  offset="0.2804" style="stop-color:#2E7E66"/>
							<stop  offset="0.4339" style="stop-color:#0D3E50"/>
							<stop  offset="0.6349" style="stop-color:#121941"/>
						</linearGradient>
						<path class="st24" d="M15,11.2L15,11.2c-0.1,0.1-0.2,0.1-0.2,0s0-0.1,0.1-0.1c0.2-0.1,0.3-0.2,0.5-0.2c-0.3-0.2-0.7-0.4-1-0.4
							h-0.1h-0.1c0.2,0.1,0.3,0.1,0.5,0.1c-0.1,0.2-0.3,0-0.4,0.1c0.1,0.1,0.2,0.2,0.3,0.3c0,0.1,0.1,0.1,0,0.2
							c-0.1,0.1-0.1,0-0.2-0.1c-0.2-0.1-0.3,0.1-0.3,0.2c0,0.1,0.1,0.2,0.1,0.3v0.1c0.1,0.1,0.1,0.3,0.2,0.4l0,0l-0.3-0.2l-0.2-0.2
							c0,0.1-0.1,0.1-0.2,0.2c-0.1-0.2,0-0.2-0.2-0.3c-0.1-0.1-0.2-0.2-0.2-0.3l-0.2,0.1c-0.5-0.2-1.1-0.3-1.7-0.3h-0.3
							c0,0-0.1,0-0.1,0.1c0,0,0.1,0.1,0.2,0.1c0,0-0.1-0.2-0.2-0.1c0.1-0.1-0.1,0.1,0,0l0,0l0,0c-0.1,0-0.3-0.1-0.4-0.2l-0.1-0.1
							c-0.2-0.1-0.3-0.3-0.3-0.5L10.1,10V9.9l0-0.3c0-0.1-0.1-0.2-0.1-0.3V8.8V8.7C10.1,8.4,9.9,8.2,9.7,8L9.4,7.8
							c0-0.1-0.1-0.2-0.2-0.2l0,0C8.8,7.3,8.5,6.9,8.3,6.5l0,0C8.1,6.2,8.1,5.9,8.2,5.6l0,0c0-0.1,0-0.1,0.1-0.2l0.1-0.1
							c0.1-0.2,0.2-0.5,0.1-0.7l0,0c0-0.1,0-0.2,0-0.2c0-0.2,0.2-0.8,0.2-1.4c0-0.4,0.1-0.8,0-1.3c0,0-6.7,0.7-8.5,7.9
							c0,0-1.5,7.3,4.6,10.8c0,0,5.9,3.6,11.3-0.6c1.8-1.4,3.1-3.2,3.7-5.4c0-0.1,0-0.1,0-0.2c0,0-1.3-0.5-2-0.2
							c0,0-0.4-0.2-0.4-0.4l-0.2-0.1c0,0,0-0.1,0.1-0.1c0.1-0.1,0.1-0.1,0.2,0s0.1,0.1,0.2,0.1c0-0.2-0.2-0.1-0.3-0.2
							c0.3-0.1,0.4-0.1,0.2-0.5c-0.1-0.1-0.1-0.2-0.1-0.3s-0.1-0.2-0.3-0.1c0.2-0.2,0.2-0.3,0.2-0.4c0-0.1,0.1-0.2,0.2-0.1
							c0.1,0.1,0.1,0.1,0.2,0s0-0.2,0-0.3s-0.1-0.1-0.1-0.2l0,0c-0.5,0.2-0.5-0.5-1.2-0.3l-0.3-0.2c-0.2-0.1-0.4,0-0.5,0.2l0,0v0.1
							h-0.1c0-0.1-0.1-0.1-0.1-0.1c-0.1,0.1-0.2,0.1-0.2,0.1s0,0-0.1,0 M16.9,11.8c-0.2,0.1-0.2-0.1-0.3-0.2c0,0,0-0.1,0.1-0.1
							s0.2-0.1,0.3,0c0.1,0.1,0.3,0.3,0.4,0.5c0.1,0.3,0.1,0.3-0.2,0.6 M15.6,11.8c0.1-0.1,0.1-0.3,0.2-0.2c0.1,0,0.1,0.2,0.1,0.4
							c0,0.1,0,0.1,0,0.1c0,0.1,0,0.2-0.1,0.2s-0.2,0-0.2-0.1s-0.1-0.2-0.3-0.1l0,0c0.1,0,0.2,0,0.1,0.1c0,0.1-0.1,0.2-0.1,0.2
							 M15.1,12.2c-0.1,0-0.1-0.1-0.2-0.1c-0.1,0-0.1-0.1,0-0.2l0,0l0,0c0-0.1-0.1-0.1-0.1-0.2c-0.1-0.1-0.2-0.2-0.2-0.3
							c0,0-0.1-0.1,0-0.2l0.1-0.1c0.1,0,0.1,0.1,0.1,0.1c0,0.1,0,0.2,0.1,0.3c0,0,0,0,0.1,0c0.2,0,0.2-0.1,0.3-0.2
							c0-0.1,0.1-0.1,0.2-0.1c-0.1,0.2-0.2,0.3-0.4,0.5l0,0c0,0,0,0,0.1,0 M17.3,13.3C17.2,13.3,17.2,13.3,17.3,13.3
							c-0.1-0.1-0.1-0.1-0.2-0.1H17c-0.1,0-0.1,0-0.1-0.1l0,0c0,0,0.1-0.1,0.1-0.2c0-0.1,0-0.2,0.1-0.2s0.1,0.2,0.1,0.3s0,0.1,0,0.2
							c0.1-0.1,0.1-0.2,0.1-0.2c0-0.1,0-0.1,0-0.2h0.1c0,0,0.1,0.1,0,0.2C17.5,13,17.4,13.2,17.3,13.3z"/>
					</g>
				</g>
				<g id="XMLID_1002_">
					
						<linearGradient id="SVGID_21_" gradientUnits="userSpaceOnUse" x1="14.902" y1="14.3497" x2="15.5561" y2="14.3497" gradientTransform="matrix(1 0 0 -1 0 24)">
						<stop  offset="0" style="stop-color:#910022"/>
						<stop  offset="0.2804" style="stop-color:#2E7E66"/>
						<stop  offset="0.4339" style="stop-color:#0D3E50"/>
						<stop  offset="0.6349" style="stop-color:#121941"/>
					</linearGradient>
					<path class="st25" d="M15.2,9.9c0.1-0.2,0-0.2-0.1-0.3c-0.1,0-0.1-0.1-0.2-0.1c-0.1,0,0-0.1,0-0.2c0-0.1,0.1,0,0.1,0
						c0.1,0.1,0.2,0.2,0.4,0.3c0.1,0,0.1,0.1,0.1,0.2c0,0.1-0.1,0.1-0.2,0.2C15.3,9.9,15.3,9.9,15.2,9.9z"/>
				</g>
			</g>
		</g>
		<g id="XMLID_998_">
			<g>
				<g>
					<g id="XMLID_1000_">
						
							<linearGradient id="SVGID_22_" gradientUnits="userSpaceOnUse" x1="196.2111" y1="-169.1874" x2="196.2111" y2="-172.5258" gradientTransform="matrix(0.9531 0.3026 0.3026 -0.9531 -124.9888 -207.7923)">
							<stop  offset="0" style="stop-color:#516660"/>
							<stop  offset="0.4497" style="stop-color:#0D3E50"/>
							<stop  offset="0.8889" style="stop-color:#121941"/>
						</linearGradient>
						<circle class="st26" cx="10.3" cy="14.4" r="1.7"/>
					</g>
					<g id="XMLID_999_">
						
							<linearGradient id="SVGID_23_" gradientUnits="userSpaceOnUse" x1="10.6695" y1="11.2419" x2="10.6695" y2="8.1599" gradientTransform="matrix(1 0 0 -1 0 24)">
							<stop  offset="0" style="stop-color:#516660"/>
							<stop  offset="0.4497" style="stop-color:#0D3E50"/>
							<stop  offset="0.8889" style="stop-color:#121941"/>
						</linearGradient>
						<path class="st27" d="M11.3,15.8c0,0,1.3-1.8-0.3-2.8c0,0-0.9-0.4-1.8,0.2c0,0,1-0.8,2-0.3c0.4,0.2,0.7,0.6,0.9,1.1
							C12.1,14.5,12.1,15.2,11.3,15.8z"/>
					</g>
				</g>
			</g>
		</g>
		<g id="XMLID_995_">
			<g>
				<g>
					<g id="XMLID_997_">
						
							<linearGradient id="SVGID_24_" gradientUnits="userSpaceOnUse" x1="4.1195" y1="11.7775" x2="4.1195" y2="7.4228" gradientTransform="matrix(1 0 0 -1 0 24)">
							<stop  offset="0" style="stop-color:#516660"/>
							<stop  offset="0.4497" style="stop-color:#0D3E50"/>
							<stop  offset="0.8889" style="stop-color:#121941"/>
						</linearGradient>
						<circle class="st28" cx="4.1" cy="14.4" r="2.2"/>
					</g>
					<g id="XMLID_996_">
						
							<linearGradient id="SVGID_25_" gradientUnits="userSpaceOnUse" x1="4.3839" y1="11.7846" x2="4.3839" y2="8.2113" gradientTransform="matrix(1 0 0 -1 0 24)">
							<stop  offset="0" style="stop-color:#516660"/>
							<stop  offset="0.4497" style="stop-color:#0D3E50"/>
							<stop  offset="0.8889" style="stop-color:#121941"/>
						</linearGradient>
						<path class="st29" d="M5.8,15.8c0,0,1.2-2.8-1.4-3.4c0,0-1.2-0.3-2,0.7c0,0,0.7-1,2-0.9c0.7,0.1,1.3,0.3,1.7,0.9
							C6.4,13.7,6.5,14.6,5.8,15.8z"/>
					</g>
				</g>
			</g>
		</g>
		<g id="XMLID_992_">
			<g>
				<g>
					<g id="XMLID_994_">
						
							<linearGradient id="SVGID_26_" gradientUnits="userSpaceOnUse" x1="5.0195" y1="15.7676" x2="5.0195" y2="12.6708" gradientTransform="matrix(1 0 0 -1 0 24)">
							<stop  offset="0" style="stop-color:#516660"/>
							<stop  offset="1" style="stop-color:#0D3E50"/>
						</linearGradient>
						<circle class="st30" cx="5" cy="9.8" r="1.5"/>
					</g>
					<g id="XMLID_993_">
						
							<linearGradient id="SVGID_27_" gradientUnits="userSpaceOnUse" x1="5.0973" y1="15.7941" x2="5.0973" y2="13.2747" gradientTransform="matrix(1 0 0 -1 0 24)">
							<stop  offset="0" style="stop-color:#516660"/>
							<stop  offset="1" style="stop-color:#0D3E50"/>
						</linearGradient>
						<path class="st31" d="M6.2,10.7c0,0,0.4-1.8-0.9-2.3c-0.1,0-0.2,0-0.3,0c-0.3,0-1,0-1.4,0.7c0,0,0.5-1.1,1.7-0.8
							c0.6,0.1,1,0.6,1.2,1.1C6.6,9.7,6.6,10.1,6.2,10.7z"/>
					</g>
				</g>
			</g>
		</g>
		<g id="XMLID_989_">
			<g>
				<g>
					<g id="XMLID_991_">
						
							<linearGradient id="SVGID_28_" gradientUnits="userSpaceOnUse" x1="113.997" y1="-113.4637" x2="113.997" y2="-115.4438" gradientTransform="matrix(0.9831 0.1829 0.1829 -0.9831 -76.0222 -115.1207)">
							<stop  offset="0" style="stop-color:#516660"/>
							<stop  offset="0.3228" style="stop-color:#282F4A"/>
							<stop  offset="0.7725" style="stop-color:#121941"/>
						</linearGradient>
						<circle class="st32" cx="15.1" cy="18.2" r="1"/>
					</g>
					<g id="XMLID_990_">
						
							<linearGradient id="SVGID_29_" gradientUnits="userSpaceOnUse" x1="15.2024" y1="6.7596" x2="15.2024" y2="5.1498" gradientTransform="matrix(1 0 0 -1 0 24)">
							<stop  offset="0" style="stop-color:#516660"/>
							<stop  offset="0.3228" style="stop-color:#282F4A"/>
							<stop  offset="0.7725" style="stop-color:#121941"/>
						</linearGradient>
						<path class="st33" d="M15.9,18.8c0,0,0.2-0.9-0.3-1.3c-0.2-0.1-0.4-0.2-0.6-0.1c-0.2,0-0.5,0.1-0.7,0.4c0,0,0.3-0.7,1-0.6
							c0.3,0.1,0.6,0.3,0.7,0.5C16.1,18,16.1,18.4,15.9,18.8z"/>
					</g>
				</g>
			</g>
		</g>
		<g id="XMLID_986_">
			<g>
				<g>
					<g id="XMLID_988_">
						
							<linearGradient id="SVGID_30_" gradientUnits="userSpaceOnUse" x1="-176.2704" y1="350.7671" x2="-177.1465" y2="349.2495" gradientTransform="matrix(0.8872 -0.4614 -0.4614 -0.8872 320.0893 239.7121)">
							<stop  offset="0" style="stop-color:#516660"/>
							<stop  offset="1" style="stop-color:#0D3E50"/>
						</linearGradient>
						<circle class="st34" cx="1.8" cy="10.7" r="0.9"/>
					</g>
					<g id="XMLID_987_">
						
							<linearGradient id="SVGID_31_" gradientUnits="userSpaceOnUse" x1="1.7749" y1="14.1352" x2="1.7749" y2="12.9104" gradientTransform="matrix(1 0 0 -1 0 24)">
							<stop  offset="0" style="stop-color:#516660"/>
							<stop  offset="1" style="stop-color:#0D3E50"/>
						</linearGradient>
						<path class="st35" d="M2.6,10.5c0,0-0.5-0.7-1.1-0.5c-0.2,0.1-0.3,0.2-0.4,0.3C1,10.5,0.9,10.7,1,11c0,0-0.3-0.6,0.2-1
							C1.4,9.8,1.7,9.7,2,9.8C2.2,9.9,2.4,10.1,2.6,10.5z"/>
					</g>
				</g>
			</g>
		</g>
		<g id="XMLID_983_">
			<g>
				<g>
					<g id="XMLID_985_">
						
							<linearGradient id="SVGID_32_" gradientUnits="userSpaceOnUse" x1="11.9195" y1="6.984" x2="11.9195" y2="3.8823" gradientTransform="matrix(1 0 0 -1 0 24)">
							<stop  offset="0" style="stop-color:#516660"/>
							<stop  offset="0.3228" style="stop-color:#282F4A"/>
							<stop  offset="0.7725" style="stop-color:#121941"/>
						</linearGradient>
						<circle class="st36" cx="11.9" cy="18.5" r="1.6"/>
					</g>
					<g id="XMLID_984_">
						
							<linearGradient id="SVGID_33_" gradientUnits="userSpaceOnUse" x1="12.0264" y1="6.9883" x2="12.0264" y2="4.4439" gradientTransform="matrix(1 0 0 -1 0 24)">
							<stop  offset="0" style="stop-color:#516660"/>
							<stop  offset="0.1323" style="stop-color:#282F4A"/>
							<stop  offset="0.9048" style="stop-color:#121941"/>
						</linearGradient>
						<path class="st37" d="M13.1,19.5c0,0,0.5-1.3-0.4-2.1c-0.4-0.3-1-0.4-1.4-0.2c-0.2,0.1-0.5,0.2-0.7,0.5c0,0,0.5-0.8,1.4-0.8
							c0.5,0,0.9,0.2,1.2,0.6C13.4,18,13.6,18.7,13.1,19.5z"/>
					</g>
				</g>
			</g>
		</g>
	</g>
</g>
</svg>
